<?xml version="1.0" encoding="UTF-8"?>
<svg id="Layer_2" data-name="Layer 2" xmlns="http://www.w3.org/2000/svg" viewBox="0 0 456.59 169.3">
  <g id="Layer_1-2" data-name="Layer 1">
    <circle cx="112.45" cy="84.65" r="28.56"/>
    <path d="m94.19,16.47l-31.65,18.27c-1.97,1.14-2.67,3.61-1.57,5.52s3.6,2.54,5.57,1.4l31.65-18.27c1.97-1.14,2.67-3.61,1.57-5.52s-3.6-2.54-5.57-1.4Z"/>
    <circle cx="112.45" cy="158.2" r="11.11"/>
    <circle cx="112.45" cy="11.11" r="11.11"/>
    <circle cx="48.72" cy="48.05" r="11.11"/>
    <circle cx="48.72" cy="121.45" r="11.11"/>
    <circle cx="176.28" cy="47.8" r="11.11"/>
    <circle cx="176.28" cy="121.35" r="11.11"/>
    <path d="m158.19,127.32l-31.65,18.27c-1.97,1.14-2.67,3.61-1.57,5.52s3.6,2.54,5.57,1.4l31.65-18.27c1.97-1.14,2.67-3.61,1.57-5.52s-3.6-2.54-5.57-1.4Z"/>
    <path d="m98.41,145.9l-31.65-18.27c-1.97-1.14-4.46-.51-5.57,1.4s-.4,4.39,1.57,5.52l31.65,18.27c1.97,1.14,4.46.51,5.57-1.4s.4-4.39-1.57-5.52Z"/>
    <path d="m162.14,35.05l-31.65-18.27c-1.97-1.14-4.46-.51-5.57,1.4s-.4,4.39,1.57,5.52l31.65,18.27c1.97,1.14,4.46.51,5.57-1.4s.4-4.39-1.57-5.52Z"/>
    <path d="m172.28,66.38v36.54c0,2.28,1.79,4.12,4,4.12s4-1.85,4-4.12v-36.54c0-2.28-1.79-4.12-4-4.12s-4,1.85-4,4.12Z"/>
    <path d="m44.72,66.48v36.54c0,2.28,1.79,4.12,4,4.12s4-1.85,4-4.12v-36.54c0-2.28-1.79-4.12-4-4.12s-4,1.85-4,4.12Z"/>
    <g>
      <path d="m220.05,17.61h37.57c1.88,0,4.45.07,7.68.2,3.23.14,6.73.54,10.5,1.21,3.77.68,7.61,1.75,11.52,3.23,3.9,1.48,7.4,3.64,10.5,6.46,3.1,2.83,5.65,6.4,7.68,10.71,2.02,4.31,3.03,9.56,3.03,15.76,0,6.87-1.18,12.52-3.54,16.97-2.36,4.44-5.32,8.05-8.89,10.81-3.57,2.76-7.51,4.82-11.82,6.16-4.31,1.35-8.42,2.29-12.32,2.83l41.61,68.68h-15.15l-40.2-67.87h-24.85v67.87h-13.33V17.61Zm13.33,63.02h28.28c7,0,12.69-.87,17.07-2.63,4.38-1.75,7.78-3.9,10.2-6.46,2.42-2.56,4.07-5.32,4.95-8.28.87-2.96,1.31-5.66,1.31-8.08s-.44-5.12-1.31-8.08c-.88-2.96-2.53-5.72-4.95-8.28-2.42-2.56-5.83-4.71-10.2-6.46-4.38-1.75-10.07-2.63-17.07-2.63h-28.28v50.9Z"/>
      <path d="m382.65,17.61h13.74l60.2,143.02h-14.95l-15.55-37.98h-75.75l-16.16,37.98h-13.94l62.42-143.02Zm6.26,14.54l-33.33,78.38h65.65l-32.32-78.38Z"/>
    </g>
    <rect x="2.94" y="66.52" width="13.33" height="94.04"/>
    <circle cx="9.6" cy="30.63" r="9.6"/>
  </g>
</svg>